<?xml version="1.0" encoding="iso-8859-1"?>
<!-- Generator: Adobe Illustrator 19.0.0, SVG Export Plug-In . SVG Version: 6.00 Build 0)  -->
<svg xmlns="http://www.w3.org/2000/svg" xmlns:xlink="http://www.w3.org/1999/xlink" version="1.1" id="Layer_1" x="0px" y="0px" viewBox="0 0 512 512" style="enable-background:new 0 0 512 512;" xml:space="preserve" width="512px" height="512px">
<g>
	<g>
		<path d="M416,0H96C43.072,0,0,43.072,0,96v320c0,52.928,43.072,96,96,96h320c52.928,0,96-43.072,96-96V96    C512,43.072,468.928,0,416,0z M490.667,416c0,41.173-33.493,74.667-74.667,74.667H96c-41.173,0-74.667-33.493-74.667-74.667V96    c0-41.173,33.493-74.667,74.667-74.667h320c41.173,0,74.667,33.493,74.667,74.667V416z" fill="#D80027"/>
	</g>
</g>
<g>
	<g>
		<path d="M202.667,128h-128C68.779,128,64,132.779,64,138.667s4.779,10.667,10.667,10.667h128c5.888,0,10.667-4.779,10.667-10.667    S208.555,128,202.667,128z" fill="#D80027"/>
	</g>
</g>
<g>
	<g>
		<path d="M138.667,64C132.779,64,128,68.779,128,74.667v128c0,5.888,4.779,10.667,10.667,10.667s10.667-4.779,10.667-10.667v-128    C149.333,68.779,144.555,64,138.667,64z" fill="#D80027"/>
	</g>
</g>
<g>
	<g>
		<path d="M437.333,128H330.667c-5.888,0-10.667,4.779-10.667,10.667s4.779,10.667,10.667,10.667h106.667    c5.888,0,10.667-4.779,10.667-10.667S443.221,128,437.333,128z" fill="#D80027"/>
	</g>
</g>
<g>
	<g>
		<path d="M189.653,430.656L104.32,323.989c-3.669-4.587-10.389-5.355-14.997-1.664c-4.587,3.691-5.333,10.389-1.664,14.997    l85.333,106.667c2.112,2.645,5.205,4.011,8.341,4.011c2.347,0,4.693-0.768,6.656-2.347    C192.576,441.963,193.323,435.264,189.653,430.656z" fill="#D80027"/>
	</g>
</g>
<g>
	<g>
		<path d="M188.011,322.347c-4.608-3.691-11.285-2.923-14.997,1.664L87.68,430.677c-3.669,4.608-2.923,11.307,1.664,14.997    C91.307,447.232,93.675,448,96,448c3.115,0,6.229-1.365,8.341-3.989l85.333-106.667    C193.344,332.736,192.597,326.037,188.011,322.347z" fill="#D80027"/>
	</g>
</g>
<g>
	<g>
		<path d="M425.131,431.829l-64-106.667c-3.029-5.035-9.579-6.699-14.635-3.648c-5.035,3.029-6.677,9.579-3.648,14.635l64,106.667    c2.005,3.349,5.525,5.184,9.152,5.184c1.877,0,3.776-0.491,5.483-1.536C426.517,443.435,428.16,436.885,425.131,431.829z" fill="#D80027"/>
	</g>
</g>
<g>
	<g>
		<path d="M501.333,256h-224V10.667C277.333,4.779,272.555,0,266.667,0S256,4.779,256,10.667v256    c0,5.888,4.779,10.667,10.667,10.667h234.667c5.888,0,10.667-4.779,10.667-10.667S507.221,256,501.333,256z" fill="#D80027"/>
	</g>
</g>
<g>
	<g>
		<path d="M266.667,256h-256C4.779,256,0,260.779,0,266.667s4.779,10.667,10.667,10.667H256v224c0,5.888,4.779,10.667,10.667,10.667    s10.667-4.779,10.667-10.667V266.667C277.333,260.779,272.555,256,266.667,256z" fill="#D80027"/>
	</g>
</g>
<g>
</g>
<g>
</g>
<g>
</g>
<g>
</g>
<g>
</g>
<g>
</g>
<g>
</g>
<g>
</g>
<g>
</g>
<g>
</g>
<g>
</g>
<g>
</g>
<g>
</g>
<g>
</g>
<g>
</g>
</svg>
